<svg width="130" height="22" viewBox="0 0 130 22" fill="none" xmlns="http://www.w3.org/2000/svg">
<path d="M25.34 19.7721L25.3393 2.22445L30.1402 1.49969L32.9203 1.49987L32.9201 4.56493L28.4829 4.56465L28.4825 9.50739L32.92 7.27101L32.9197 10.695L28.4823 12.959L28.4823 20.396L25.34 19.7721Z" fill="white"/>
<path d="M34.4913 4.12322C34.4914 2.43882 35.4286 1.50003 37.0271 1.50013L40.5273 1.50035C42.1258 1.50045 43.0904 2.43936 43.0902 4.12376L43.0902 4.59319L39.9206 6.24977L39.9207 4.53776L37.6332 4.53761L37.6329 9.36991L43.0901 6.55372L43.0894 18.0408C43.0893 19.7252 42.1246 20.664 40.5261 20.6639L37.0259 20.6636C35.4273 20.6635 34.4903 19.7246 34.4904 18.0402L34.4906 16.2454L37.6326 14.6164L37.6324 17.6262L39.9199 17.6264L39.9203 11.6067L34.4907 14.4505L34.4913 4.12322Z" fill="white"/>
<path d="M53.9095 1.5012L53.9085 17.5997L56.196 17.5998L56.197 1.50135L59.3665 1.50155L59.3654 17.9866C59.3653 19.809 58.4833 20.665 56.6092 20.6649L54.1563 20.6647C53.0263 20.6647 52.3649 20.0019 52.365 18.8145C52.3649 20.0019 51.6759 20.6646 50.5459 20.6645L47.9 20.6643C46.3015 20.6642 45.3645 19.7253 45.3646 18.0409L45.3657 1.50066L48.5076 1.50086L48.5066 17.5993L50.8217 17.5995L50.8227 1.50101L53.9095 1.5012Z" fill="white"/>
<path d="M72.6796 8.32283L72.6798 4.457L70.1442 4.45684L70.1439 9.56526L72.6796 8.32283ZM75.7111 10.4769L75.7106 18.0152C75.7105 19.8101 74.801 20.666 72.8993 20.6659L67.1115 20.6655L67.1128 1.50204L73.1485 1.50242C74.7471 1.50253 75.7116 2.44143 75.7115 4.12583L75.7113 8.15735C75.7112 9.39994 75.3253 10.1455 74.3607 10.4768L75.7111 10.4769ZM72.679 17.6837L72.6794 11.526L70.1437 12.796L70.1434 17.6835L72.679 17.6837Z" fill="white"/>
<path d="M86.584 20.6668L83.4421 20.6666L83.4426 12.5483L81.1274 13.7355L81.127 20.6664L77.9851 20.6662L77.9861 4.12598C77.9862 2.44158 78.9234 1.50279 80.5219 1.50289L84.0221 1.50311C85.6206 1.50322 86.5852 2.44212 86.5851 4.12652L86.584 20.6668ZM83.4428 9.17952L83.4431 4.54052L81.128 4.54037L81.1277 10.3115L83.4428 9.17952Z" fill="white"/>
<path d="M94.3702 9.23544L94.3705 4.54121L92.0554 4.54107L92.055 10.395L94.3702 9.23544ZM97.512 11.0029L95.1968 12.1901L98.7792 20.6676L95.4995 20.6673L92.5234 13.5706L92.0548 13.8191L92.0544 20.6671L88.9125 20.6669L88.9137 1.50342L94.9495 1.50381C96.548 1.50391 97.5125 2.44282 97.5124 4.12722L97.512 11.0029Z" fill="white"/>
<path d="M105.327 8.32491L105.327 4.45907L102.792 4.45891L102.791 9.56734L105.327 8.32491ZM108.359 10.4789L108.358 18.0173C108.358 19.8122 107.449 20.6681 105.547 20.668L99.7591 20.6676L99.7603 1.50411L105.796 1.5045C107.395 1.5046 108.359 2.4435 108.359 4.1279L108.359 8.15942C108.359 9.40201 107.973 10.1475 107.008 10.4788L108.359 10.4789ZM105.327 17.6858L105.327 11.528L102.791 12.7981L102.791 17.6856L105.327 17.6858Z" fill="white"/>
<path d="M118.212 20.6688L110.633 20.6683L110.634 1.5048L118.213 1.50528L118.213 4.57034L113.776 4.57006L113.775 9.51281L118.213 7.27643L118.212 10.7005L113.775 12.9644L113.775 17.6034L118.212 17.6037L118.212 20.6688Z" fill="white"/>
<path d="M125.591 9.23742L125.592 4.54319L123.276 4.54305L123.276 10.397L125.591 9.23742ZM128.733 11.0049L126.418 12.1921L130 20.6695L126.721 20.6693L123.744 13.5726L123.276 13.8211L123.275 20.6691L120.134 20.6689L120.135 1.50541L126.171 1.50579C127.769 1.50589 128.734 2.4448 128.733 4.1292L128.733 11.0049Z" fill="white"/>
<path d="M25.34 19.7721L25.3393 2.22445L30.1402 1.49969L32.9203 1.49987L32.9201 4.56493L28.4829 4.56465L28.4825 9.50739L32.92 7.27101L32.9197 10.695L28.4823 12.959L28.4823 20.396L25.34 19.7721Z" fill="#8162FF"/>
<path d="M34.4913 4.12322C34.4914 2.43882 35.4286 1.50003 37.0271 1.50013L40.5273 1.50035C42.1258 1.50045 43.0904 2.43936 43.0902 4.12376L43.0902 4.59319L39.9206 6.24977L39.9207 4.53776L37.6332 4.53761L37.6329 9.36991L43.0901 6.55372L43.0894 18.0408C43.0893 19.7252 42.1246 20.664 40.5261 20.6639L37.0259 20.6636C35.4273 20.6635 34.4903 19.7246 34.4904 18.0402L34.4906 16.2454L37.6326 14.6164L37.6324 17.6262L39.9199 17.6264L39.9203 11.6067L34.4907 14.4505L34.4913 4.12322Z" fill="#8162FF"/>
<path d="M53.9095 1.5012L53.9085 17.5997L56.196 17.5998L56.197 1.50135L59.3665 1.50155L59.3654 17.9866C59.3653 19.809 58.4833 20.665 56.6092 20.6649L54.1563 20.6647C53.0263 20.6647 52.3649 20.0019 52.365 18.8145C52.3649 20.0019 51.6759 20.6646 50.5459 20.6645L47.9 20.6643C46.3015 20.6642 45.3645 19.7253 45.3646 18.0409L45.3657 1.50066L48.5076 1.50086L48.5066 17.5993L50.8217 17.5995L50.8227 1.50101L53.9095 1.5012Z" fill="#8162FF"/>
<path fill-rule="evenodd" clip-rule="evenodd" d="M1.81656 4.93412C1.8165 5.7627 2.14596 6.55736 2.73244 7.14328C3.31892 7.72921 4.11439 8.05841 4.94385 8.05846C5.77331 8.05852 6.56882 7.72942 7.15537 7.14356C7.74193 6.55771 8.07148 5.76309 8.07153 4.93452C8.07159 4.10595 7.74213 3.31129 7.15565 2.72536C6.56917 2.13943 5.77371 1.81023 4.94424 1.81018C4.11478 1.81013 3.31927 2.13923 2.73272 2.72508C2.14616 3.31093 1.81661 4.10555 1.81656 4.93412ZM4.94373 9.87248C3.88532 9.87229 2.8549 9.53277 2.00409 8.90387C1.15328 8.27496 0.526999 7.38988 0.217387 6.37885C-0.0922245 5.36781 -0.0688178 4.2842 0.284164 3.28745C0.637145 2.29069 1.30106 1.43343 2.17824 0.841767C3.05541 0.250109 4.09953 -0.0446962 5.15697 0.000724021C6.21441 0.0461443 7.22934 0.429392 8.05243 1.09408C8.87553 1.75877 9.46333 2.66981 9.72936 3.69315C9.99538 4.71649 9.92559 5.79811 9.53024 6.77886L11.4753 8.07702C11.461 8.12246 11.4475 8.16815 11.4349 8.21407L11.1241 9.32262L10.4118 9.79825L8.40625 8.45978C7.51436 9.33247 6.29158 9.87256 4.94373 9.87248ZM1.81579 17.0578C1.81584 16.2292 2.14539 15.4346 2.73195 14.8488C3.3185 14.2629 4.11401 13.9338 4.94347 13.9339C5.77294 13.9339 6.5684 14.2631 7.15488 14.849C7.74137 15.435 8.07082 16.2296 8.07076 17.0582C8.07071 17.8868 7.74116 18.6814 7.1546 19.2672C6.56805 19.8531 5.77254 20.1822 4.94308 20.1821C4.11362 20.1821 3.31815 19.8529 2.73167 19.267C2.14519 18.681 1.81574 17.8864 1.81579 17.0578ZM4.94359 12.1198C3.8861 12.1199 2.8565 12.4587 2.00601 13.0865C1.15552 13.7142 0.528973 14.5979 0.218393 15.6077C-0.0921863 16.6175 -0.0704276 17.7001 0.280474 18.6966C0.631375 19.6931 1.29292 20.551 2.16795 21.1441C3.04298 21.7373 4.08536 22.0345 5.142 21.9922C6.19864 21.9498 7.21384 21.5701 8.03848 20.9089C8.86313 20.2476 9.45375 19.3395 9.72361 18.3182C9.99347 17.2968 9.92833 16.2159 9.53777 15.2342L30.1659 1.49641L28.2471 1.65445C25.5411 1.93871 22.9206 2.76675 20.5432 4.08877L14.3385 7.53501C14.1054 7.66502 13.9006 7.83991 13.7357 8.04957C13.5708 8.25922 13.4492 8.49946 13.3779 8.75639L12.8673 10.5825L8.42207 13.5511C7.49772 12.6332 6.24695 12.1186 4.94359 12.1198ZM14.3138 14.4686L14.338 14.4827L20.5423 17.9297C22.9195 19.252 25.5399 20.0804 28.2459 20.365L27.9688 19.003L25.3467 17.3579L17.6755 12.2214L14.3138 14.4686Z" fill="#8162FF"/>
</svg>
